<?xml version="1.0" encoding="iso-8859-1"?>
<!-- Generator: Adobe Illustrator 19.0.0, SVG Export Plug-In . SVG Version: 6.00 Build 0)  -->
<svg version="1.1" id="Layer_1" xmlns="http://www.w3.org/2000/svg" xmlns:xlink="http://www.w3.org/1999/xlink" x="0px" y="0px"
	 viewBox="0 0 512 512" style="enable-background:new 0 0 512 512;" xml:space="preserve">
<polygon style="fill:#2BA5F7;" points="37.621,291.158 37.621,344.45 37.621,375.517 37.621,489.128 474.365,489.128 
	474.365,375.517 474.365,344.45 474.365,291.158 "/>
<path style="fill:#E54728;" d="M279.811,71.432c-2.912,2.912-6.218,5.184-9.756,6.803c-4.449,2.041-9.252,3.061-14.055,3.061
	c-8.626,0-17.239-3.279-23.811-9.864c-13.157-13.144-13.157-34.464,0-47.622L256,0l23.811,23.811
	C292.954,36.968,292.954,58.289,279.811,71.432z"/>
<path style="fill:#F95428;" d="M279.811,71.432c-2.912,2.912-6.218,5.184-9.756,6.803c-3.524-1.619-6.844-3.891-9.742-6.803
	c-13.157-13.144-13.157-34.464,0-47.622l9.756-9.742l9.742,9.742C292.954,36.968,292.954,58.289,279.811,71.432z"/>
<path style="fill:#F7B239;" d="M293.757,111.111v99.559h-75.514v-99.559c0-8.011,6.494-14.507,14.507-14.507h46.5
	C287.263,96.604,293.757,103.099,293.757,111.111z"/>
<path style="fill:#E09B2D;" d="M242.054,96.604v95.923h-23.811v-81.417c0-8.011,6.494-14.507,14.507-14.507H242.054z"/>
<path style="fill:#B27214;" d="M473.168,238.081l-20.654,37.788c-12.286,11.484-31.362,11.484-43.662,0l-0.014-0.027
	c-12.286-11.484-31.376-11.484-43.662,0l-0.014,0.014c-12.286,11.484-31.376,11.484-43.662,0l-0.014-0.014
	c-12.286-11.484-31.376-11.484-43.662,0.014h-0.014c-6.136,5.742-13.987,8.613-21.838,8.613c-7.837,0-15.674-2.871-21.824-8.613
	c-6.15-5.742-13.987-8.613-21.838-8.613c-7.851,0-15.688,2.871-21.838,8.613c-6.15,5.742-13.987,8.613-21.824,8.613
	c-7.851,0-15.702-2.871-21.838-8.613c-6.15-5.742-14.001-8.613-21.852-8.613c-7.837,0-15.674,2.871-21.824,8.613
	c-12.286,11.484-31.376,11.484-43.662,0l-20.654-37.761c5.402-26.015,28.45-45.567,56.071-45.567h123.353h75.514h123.34
	C444.718,192.527,467.766,212.066,473.168,238.081z"/>
<g>
	<rect x="37.621" y="353.747" style="fill:#F7B239;" width="436.744" height="63.269"/>
	<path style="fill:#F7B239;" d="M474.365,249.796v63.133H37.621v-63.133c0-4.014,0.408-7.919,1.197-11.701l20.654,19.28
		c12.286,11.484,31.376,11.484,43.662,0c6.15-5.742,13.987-8.613,21.824-8.613c7.851,0,15.702,2.871,21.852,8.613
		c6.136,5.742,13.987,8.613,21.838,8.613c7.837,0,15.674-2.871,21.824-8.613c6.15-5.742,13.987-8.613,21.838-8.613
		c7.851,0,15.688,2.871,21.838,8.613c6.15,5.742,13.987,8.613,21.824,8.613c7.851,0,15.702-2.871,21.838-8.613h0.014
		c12.286-11.497,31.376-11.497,43.662-0.014l0.014,0.014c12.286,11.484,31.376,11.484,43.662,0l0.014-0.014
		c12.286-11.484,31.376-11.484,43.662,0l0.014,0.027c12.3,11.484,31.376,11.484,43.662,0l20.654-19.307
		C473.957,241.863,474.365,245.782,474.365,249.796z"/>
</g>
<rect x="37.621" y="407.042" style="fill:#2197D8;" width="87.977" height="64.856"/>
<path style="fill:#995C0D;" d="M182.867,192.527c-27.621,0-50.669,19.552-56.071,45.567c-0.721,3.456-1.129,7.021-1.184,10.681
	c-0.218-0.014-0.435-0.014-0.653-0.014c-7.837,0-15.674,30.437-21.824,36.179c-12.286,11.484-31.376,11.484-43.662,0l-20.654-46.846
	c5.402-26.015,28.45-45.567,56.071-45.567L182.867,192.527L182.867,192.527z"/>
<rect x="37.621" y="304.765" style="fill:#2197D8;" width="87.977" height="57.146"/>
<g>
	<rect x="37.621" y="353.747" style="fill:#E09B2D;" width="87.977" height="63.269"/>
	<path style="fill:#E09B2D;" d="M124.959,248.762c0.218,0,0.435,0,0.653,0.014c-0.014,0.34-0.014,0.68-0.014,1.02v63.133H37.621
		v-63.133c0-4.014,0.408-7.919,1.197-11.701l20.654,19.28c12.286,11.484,31.376,11.484,43.662,0
		C109.285,251.632,117.122,248.762,124.959,248.762z"/>
</g>
<path style="fill:#F7B239;" d="M125.612,248.775c0.952,0.014,1.905,0.068,2.857,0.19
	C127.517,248.857,126.565,248.802,125.612,248.775z"/>
<path style="fill:#E6E6E6;" d="M504.979,461.916l-11.892,28.423C487.604,503.455,474.774,512,460.555,512H51.431
	c-14.218,0-27.049-8.545-32.532-21.661L7.021,461.916h30.6h436.744H504.979z"/>
<path style="fill:#CCCCCC;" d="M114.02,512H51.431c-14.218,0-27.049-8.545-32.532-21.661L7.021,461.916h62.588l11.878,28.423
	C86.971,503.455,99.801,512,114.02,512z"/>
<g>
</g>
<g>
</g>
<g>
</g>
<g>
</g>
<g>
</g>
<g>
</g>
<g>
</g>
<g>
</g>
<g>
</g>
<g>
</g>
<g>
</g>
<g>
</g>
<g>
</g>
<g>
</g>
<g>
</g>
</svg>
